<mxfile host="app.diagrams.net" modified="2024-06-13T23:36:49.989Z" agent="Mozilla/5.0 (Windows NT 10.0; Win64; x64) AppleWebKit/537.36 (KHTML, like Gecko) Chrome/125.0.0.0 Safari/537.36" etag="O2q3l_7HBHsJqi7-AwSc" version="24.5.4" type="device">
  <diagram name="Página-1" id="NE8ySHJnJ_zSydIGldCs">
    <mxGraphModel dx="933" dy="390" grid="1" gridSize="10" guides="1" tooltips="1" connect="1" arrows="1" fold="1" page="1" pageScale="1" pageWidth="827" pageHeight="1169" math="0" shadow="0">
      <root>
        <mxCell id="0" />
        <mxCell id="1" parent="0" />
        <mxCell id="jymh45gK8Xf7N7y_NM-f-6" style="edgeStyle=orthogonalEdgeStyle;rounded=0;orthogonalLoop=1;jettySize=auto;html=1;endArrow=none;endFill=0;" parent="1" source="jymh45gK8Xf7N7y_NM-f-1" target="jymh45gK8Xf7N7y_NM-f-4" edge="1">
          <mxGeometry relative="1" as="geometry" />
        </mxCell>
        <mxCell id="jymh45gK8Xf7N7y_NM-f-12" style="edgeStyle=orthogonalEdgeStyle;rounded=0;orthogonalLoop=1;jettySize=auto;html=1;endArrow=oval;endFill=1;" parent="1" source="jymh45gK8Xf7N7y_NM-f-1" edge="1">
          <mxGeometry relative="1" as="geometry">
            <mxPoint x="420" y="610" as="targetPoint" />
            <Array as="points">
              <mxPoint x="420" y="610" />
            </Array>
          </mxGeometry>
        </mxCell>
        <mxCell id="jymh45gK8Xf7N7y_NM-f-13" style="edgeStyle=orthogonalEdgeStyle;rounded=0;orthogonalLoop=1;jettySize=auto;html=1;endArrow=oval;endFill=0;" parent="1" source="jymh45gK8Xf7N7y_NM-f-1" edge="1">
          <mxGeometry relative="1" as="geometry">
            <mxPoint x="430" y="610" as="targetPoint" />
            <Array as="points">
              <mxPoint x="430" y="610" />
            </Array>
          </mxGeometry>
        </mxCell>
        <mxCell id="jymh45gK8Xf7N7y_NM-f-1" value="Paciente" style="rounded=0;whiteSpace=wrap;html=1;" parent="1" vertex="1">
          <mxGeometry x="400" y="500" width="120" height="60" as="geometry" />
        </mxCell>
        <mxCell id="jymh45gK8Xf7N7y_NM-f-2" value="Médico" style="rounded=0;whiteSpace=wrap;html=1;" parent="1" vertex="1">
          <mxGeometry x="840" y="500" width="120" height="60" as="geometry" />
        </mxCell>
        <mxCell id="jymh45gK8Xf7N7y_NM-f-3" value="Especialidade" style="rounded=0;whiteSpace=wrap;html=1;" parent="1" vertex="1">
          <mxGeometry x="1140" y="500" width="120" height="60" as="geometry" />
        </mxCell>
        <mxCell id="jymh45gK8Xf7N7y_NM-f-7" style="edgeStyle=orthogonalEdgeStyle;rounded=0;orthogonalLoop=1;jettySize=auto;html=1;endArrow=none;endFill=0;" parent="1" source="jymh45gK8Xf7N7y_NM-f-4" target="e3gF1P6jjjPdqpN6oWMy-5" edge="1">
          <mxGeometry relative="1" as="geometry" />
        </mxCell>
        <mxCell id="jymh45gK8Xf7N7y_NM-f-4" value="Está/&lt;div&gt;Possui&lt;/div&gt;" style="rhombus;whiteSpace=wrap;html=1;" parent="1" vertex="1">
          <mxGeometry x="570" y="320" width="80" height="80" as="geometry" />
        </mxCell>
        <mxCell id="jymh45gK8Xf7N7y_NM-f-9" style="edgeStyle=orthogonalEdgeStyle;rounded=0;orthogonalLoop=1;jettySize=auto;html=1;endArrow=none;endFill=0;exitX=0.5;exitY=1;exitDx=0;exitDy=0;entryX=0.5;entryY=0;entryDx=0;entryDy=0;" parent="1" source="jymh45gK8Xf7N7y_NM-f-5" target="jymh45gK8Xf7N7y_NM-f-2" edge="1">
          <mxGeometry relative="1" as="geometry" />
        </mxCell>
        <mxCell id="jymh45gK8Xf7N7y_NM-f-5" value="Está/&lt;div&gt;Possui&lt;/div&gt;" style="rhombus;whiteSpace=wrap;html=1;" parent="1" vertex="1">
          <mxGeometry x="860" y="320" width="80" height="80" as="geometry" />
        </mxCell>
        <mxCell id="jymh45gK8Xf7N7y_NM-f-14" style="edgeStyle=orthogonalEdgeStyle;rounded=0;orthogonalLoop=1;jettySize=auto;html=1;endArrow=oval;endFill=1;" parent="1" edge="1">
          <mxGeometry relative="1" as="geometry">
            <mxPoint x="1151.02" y="610" as="targetPoint" />
            <mxPoint x="1151.02" y="560" as="sourcePoint" />
            <Array as="points">
              <mxPoint x="1151.02" y="610" />
            </Array>
          </mxGeometry>
        </mxCell>
        <mxCell id="jymh45gK8Xf7N7y_NM-f-16" style="edgeStyle=orthogonalEdgeStyle;rounded=0;orthogonalLoop=1;jettySize=auto;html=1;endArrow=oval;endFill=1;" parent="1" edge="1">
          <mxGeometry relative="1" as="geometry">
            <mxPoint x="850" y="610" as="targetPoint" />
            <mxPoint x="850" y="560" as="sourcePoint" />
            <Array as="points">
              <mxPoint x="850" y="610" />
            </Array>
          </mxGeometry>
        </mxCell>
        <mxCell id="jymh45gK8Xf7N7y_NM-f-18" value="N" style="text;strokeColor=none;fillColor=none;align=left;verticalAlign=middle;spacingLeft=4;spacingRight=4;overflow=hidden;points=[[0,0.5],[1,0.5]];portConstraint=eastwest;rotatable=0;whiteSpace=wrap;html=1;" parent="1" vertex="1">
          <mxGeometry x="510" y="470" width="80" height="30" as="geometry" />
        </mxCell>
        <mxCell id="jymh45gK8Xf7N7y_NM-f-19" value="N" style="text;strokeColor=none;fillColor=none;align=left;verticalAlign=middle;spacingLeft=4;spacingRight=4;overflow=hidden;points=[[0,0.5],[1,0.5]];portConstraint=eastwest;rotatable=0;whiteSpace=wrap;html=1;" parent="1" vertex="1">
          <mxGeometry x="820" y="370" width="80" height="30" as="geometry" />
        </mxCell>
        <mxCell id="jymh45gK8Xf7N7y_NM-f-20" value="1" style="text;html=1;align=center;verticalAlign=middle;whiteSpace=wrap;rounded=0;" parent="1" vertex="1">
          <mxGeometry x="1110" y="470" width="60" height="30" as="geometry" />
        </mxCell>
        <mxCell id="jymh45gK8Xf7N7y_NM-f-21" value="1" style="text;html=1;align=center;verticalAlign=middle;whiteSpace=wrap;rounded=0;" parent="1" vertex="1">
          <mxGeometry x="930" y="470" width="60" height="30" as="geometry" />
        </mxCell>
        <mxCell id="jymh45gK8Xf7N7y_NM-f-22" style="edgeStyle=orthogonalEdgeStyle;rounded=0;orthogonalLoop=1;jettySize=auto;html=1;endArrow=oval;endFill=0;" parent="1" edge="1">
          <mxGeometry relative="1" as="geometry">
            <mxPoint x="440" y="610" as="targetPoint" />
            <mxPoint x="440" y="560" as="sourcePoint" />
            <Array as="points">
              <mxPoint x="440" y="610" />
            </Array>
          </mxGeometry>
        </mxCell>
        <mxCell id="jymh45gK8Xf7N7y_NM-f-24" style="edgeStyle=orthogonalEdgeStyle;rounded=0;orthogonalLoop=1;jettySize=auto;html=1;endArrow=oval;endFill=0;" parent="1" edge="1">
          <mxGeometry relative="1" as="geometry">
            <mxPoint x="1171.02" y="610" as="targetPoint" />
            <mxPoint x="1171.02" y="560" as="sourcePoint" />
            <Array as="points">
              <mxPoint x="1171.02" y="610" />
            </Array>
          </mxGeometry>
        </mxCell>
        <mxCell id="jymh45gK8Xf7N7y_NM-f-29" value="&lt;font style=&quot;font-size: 10px;&quot;&gt;Paciente (na ordem)&lt;/font&gt;&lt;div&gt;&lt;font style=&quot;font-size: 8px;&quot;&gt;1 - id_paciente (PK)&lt;/font&gt;&lt;/div&gt;&lt;div&gt;&lt;font style=&quot;font-size: 8px;&quot;&gt;2 - nm_paciente&lt;/font&gt;&lt;/div&gt;&lt;div&gt;&lt;font style=&quot;font-size: 8px;&quot;&gt;3 - dt_nascimento_paciente&lt;/font&gt;&lt;/div&gt;&lt;div&gt;&lt;br&gt;&lt;/div&gt;" style="text;strokeColor=none;fillColor=none;align=left;verticalAlign=middle;spacingLeft=4;spacingRight=4;overflow=hidden;points=[[0,0.5],[1,0.5]];portConstraint=eastwest;rotatable=0;whiteSpace=wrap;html=1;" parent="1" vertex="1">
          <mxGeometry x="400" y="600" width="120" height="110" as="geometry" />
        </mxCell>
        <mxCell id="jymh45gK8Xf7N7y_NM-f-31" value="&lt;font style=&quot;font-size: 10px;&quot;&gt;Médico (na ordem)&lt;/font&gt;&lt;div&gt;&lt;font style=&quot;font-size: 8px;&quot;&gt;1 - id_medico (PK)&lt;/font&gt;&lt;/div&gt;&lt;div&gt;&lt;font style=&quot;font-size: 8px;&quot;&gt;2 - id_medico_especialidade (FK)&lt;/font&gt;&lt;/div&gt;&lt;div&gt;&lt;font style=&quot;font-size: 8px;&quot;&gt;3 - nm_medico&lt;/font&gt;&lt;/div&gt;" style="text;strokeColor=none;fillColor=none;align=left;verticalAlign=middle;spacingLeft=4;spacingRight=4;overflow=hidden;points=[[0,0.5],[1,0.5]];portConstraint=eastwest;rotatable=0;whiteSpace=wrap;html=1;" parent="1" vertex="1">
          <mxGeometry x="835" y="600" width="130" height="110" as="geometry" />
        </mxCell>
        <mxCell id="jymh45gK8Xf7N7y_NM-f-32" value="&lt;font style=&quot;font-size: 10px;&quot;&gt;Especialidade (na ordem)&lt;/font&gt;&lt;div&gt;&lt;font style=&quot;font-size: 8px;&quot;&gt;1 - id_especialidade (PK)&lt;/font&gt;&lt;/div&gt;&lt;div&gt;&lt;font style=&quot;font-size: 8px;&quot;&gt;2 - nm_especialidade&lt;/font&gt;&lt;/div&gt;&lt;div&gt;&lt;font style=&quot;font-size: 8px;&quot;&gt;3 - ic_ativo&lt;/font&gt;&lt;/div&gt;" style="text;strokeColor=none;fillColor=none;align=left;verticalAlign=middle;spacingLeft=4;spacingRight=4;overflow=hidden;points=[[0,0.5],[1,0.5]];portConstraint=eastwest;rotatable=0;whiteSpace=wrap;html=1;" parent="1" vertex="1">
          <mxGeometry x="1140" y="600" width="130" height="110" as="geometry" />
        </mxCell>
        <mxCell id="jymh45gK8Xf7N7y_NM-f-33" style="edgeStyle=orthogonalEdgeStyle;rounded=0;orthogonalLoop=1;jettySize=auto;html=1;endArrow=oval;endFill=0;" parent="1" edge="1">
          <mxGeometry relative="1" as="geometry">
            <mxPoint x="870" y="610" as="targetPoint" />
            <mxPoint x="870" y="560" as="sourcePoint" />
            <Array as="points">
              <mxPoint x="870" y="610" />
            </Array>
          </mxGeometry>
        </mxCell>
        <mxCell id="e3gF1P6jjjPdqpN6oWMy-1" value="Telefone" style="rounded=0;whiteSpace=wrap;html=1;" vertex="1" parent="1">
          <mxGeometry x="400" y="250" width="120" height="60" as="geometry" />
        </mxCell>
        <mxCell id="e3gF1P6jjjPdqpN6oWMy-2" style="edgeStyle=orthogonalEdgeStyle;rounded=0;orthogonalLoop=1;jettySize=auto;html=1;endArrow=none;endFill=0;entryX=0.5;entryY=1;entryDx=0;entryDy=0;" edge="1" parent="1" source="jymh45gK8Xf7N7y_NM-f-1" target="e3gF1P6jjjPdqpN6oWMy-1">
          <mxGeometry relative="1" as="geometry">
            <mxPoint x="435" y="450" as="sourcePoint" />
            <mxPoint x="485" y="450" as="targetPoint" />
          </mxGeometry>
        </mxCell>
        <mxCell id="e3gF1P6jjjPdqpN6oWMy-3" value="Pertence/&lt;div&gt;Possui&lt;/div&gt;" style="rhombus;whiteSpace=wrap;html=1;" vertex="1" parent="1">
          <mxGeometry x="420" y="360" width="80" height="80" as="geometry" />
        </mxCell>
        <mxCell id="e3gF1P6jjjPdqpN6oWMy-5" value="Consulta" style="rounded=0;whiteSpace=wrap;html=1;" vertex="1" parent="1">
          <mxGeometry x="700" y="330" width="120" height="60" as="geometry" />
        </mxCell>
        <mxCell id="e3gF1P6jjjPdqpN6oWMy-7" value="" style="endArrow=none;html=1;rounded=0;entryX=0;entryY=0.5;entryDx=0;entryDy=0;exitX=1;exitY=0.5;exitDx=0;exitDy=0;" edge="1" parent="1" source="e3gF1P6jjjPdqpN6oWMy-5" target="jymh45gK8Xf7N7y_NM-f-5">
          <mxGeometry width="50" height="50" relative="1" as="geometry">
            <mxPoint x="820" y="490" as="sourcePoint" />
            <mxPoint x="870" y="440" as="targetPoint" />
          </mxGeometry>
        </mxCell>
        <mxCell id="e3gF1P6jjjPdqpN6oWMy-9" value="" style="endArrow=none;html=1;rounded=0;entryX=0;entryY=0.5;entryDx=0;entryDy=0;exitX=1;exitY=0.5;exitDx=0;exitDy=0;" edge="1" parent="1" source="jymh45gK8Xf7N7y_NM-f-2" target="jymh45gK8Xf7N7y_NM-f-3">
          <mxGeometry width="50" height="50" relative="1" as="geometry">
            <mxPoint x="990" y="529.66" as="sourcePoint" />
            <mxPoint x="1030" y="529.66" as="targetPoint" />
          </mxGeometry>
        </mxCell>
        <mxCell id="e3gF1P6jjjPdqpN6oWMy-10" value="&lt;font style=&quot;font-size: 10px;&quot;&gt;Telefone (na ordem)&lt;/font&gt;&lt;div&gt;&lt;font style=&quot;font-size: 8px;&quot;&gt;1 - id_telefone (PK)&lt;/font&gt;&lt;/div&gt;&lt;div&gt;&lt;font style=&quot;font-size: 8px;&quot;&gt;2 - DDD&lt;/font&gt;&lt;/div&gt;&lt;div&gt;&lt;font style=&quot;font-size: 8px;&quot;&gt;3 - telefone&lt;/font&gt;&lt;/div&gt;&lt;div&gt;&lt;font style=&quot;font-size: 8px;&quot;&gt;4 - id_paciente_telefone (FK)&lt;/font&gt;&lt;/div&gt;" style="text;strokeColor=none;fillColor=none;align=left;verticalAlign=middle;spacingLeft=4;spacingRight=4;overflow=hidden;points=[[0,0.5],[1,0.5]];portConstraint=eastwest;rotatable=0;whiteSpace=wrap;html=1;" vertex="1" parent="1">
          <mxGeometry x="400" y="90" width="120" height="110" as="geometry" />
        </mxCell>
        <mxCell id="e3gF1P6jjjPdqpN6oWMy-11" style="edgeStyle=orthogonalEdgeStyle;rounded=0;orthogonalLoop=1;jettySize=auto;html=1;endArrow=oval;endFill=1;" edge="1" parent="1">
          <mxGeometry relative="1" as="geometry">
            <mxPoint x="419.6" y="200" as="targetPoint" />
            <Array as="points">
              <mxPoint x="419.6" y="250" />
              <mxPoint x="419.6" y="250" />
            </Array>
            <mxPoint x="419.6" y="250" as="sourcePoint" />
          </mxGeometry>
        </mxCell>
        <mxCell id="e3gF1P6jjjPdqpN6oWMy-14" style="edgeStyle=orthogonalEdgeStyle;rounded=0;orthogonalLoop=1;jettySize=auto;html=1;endArrow=oval;endFill=0;" edge="1" parent="1">
          <mxGeometry relative="1" as="geometry">
            <mxPoint x="430" y="200" as="targetPoint" />
            <mxPoint x="430" y="250" as="sourcePoint" />
            <Array as="points">
              <mxPoint x="430" y="240" />
              <mxPoint x="430" y="240" />
            </Array>
          </mxGeometry>
        </mxCell>
        <mxCell id="e3gF1P6jjjPdqpN6oWMy-16" style="edgeStyle=orthogonalEdgeStyle;rounded=0;orthogonalLoop=1;jettySize=auto;html=1;endArrow=oval;endFill=1;" edge="1" parent="1">
          <mxGeometry relative="1" as="geometry">
            <mxPoint x="450" y="200" as="targetPoint" />
            <Array as="points">
              <mxPoint x="450" y="250" />
              <mxPoint x="450" y="250" />
            </Array>
            <mxPoint x="450" y="250" as="sourcePoint" />
          </mxGeometry>
        </mxCell>
        <mxCell id="e3gF1P6jjjPdqpN6oWMy-17" style="edgeStyle=orthogonalEdgeStyle;rounded=0;orthogonalLoop=1;jettySize=auto;html=1;endArrow=oval;endFill=0;" edge="1" parent="1">
          <mxGeometry relative="1" as="geometry">
            <mxPoint x="440" y="200" as="targetPoint" />
            <mxPoint x="440" y="250" as="sourcePoint" />
            <Array as="points">
              <mxPoint x="440" y="240" />
              <mxPoint x="440" y="240" />
            </Array>
          </mxGeometry>
        </mxCell>
        <mxCell id="e3gF1P6jjjPdqpN6oWMy-18" value="1" style="text;html=1;align=center;verticalAlign=middle;whiteSpace=wrap;rounded=0;" vertex="1" parent="1">
          <mxGeometry x="670" y="300" width="60" height="30" as="geometry" />
        </mxCell>
        <mxCell id="e3gF1P6jjjPdqpN6oWMy-19" value="1" style="text;html=1;align=center;verticalAlign=middle;whiteSpace=wrap;rounded=0;" vertex="1" parent="1">
          <mxGeometry x="810" y="470" width="60" height="30" as="geometry" />
        </mxCell>
        <mxCell id="e3gF1P6jjjPdqpN6oWMy-20" value="1" style="text;html=1;align=center;verticalAlign=middle;whiteSpace=wrap;rounded=0;" vertex="1" parent="1">
          <mxGeometry x="370" y="310" width="60" height="30" as="geometry" />
        </mxCell>
        <mxCell id="e3gF1P6jjjPdqpN6oWMy-21" value="N" style="text;strokeColor=none;fillColor=none;align=left;verticalAlign=middle;spacingLeft=4;spacingRight=4;overflow=hidden;points=[[0,0.5],[1,0.5]];portConstraint=eastwest;rotatable=0;whiteSpace=wrap;html=1;" vertex="1" parent="1">
          <mxGeometry x="390" y="470" width="80" height="30" as="geometry" />
        </mxCell>
        <mxCell id="e3gF1P6jjjPdqpN6oWMy-22" style="edgeStyle=orthogonalEdgeStyle;rounded=0;orthogonalLoop=1;jettySize=auto;html=1;endArrow=oval;endFill=1;" edge="1" parent="1">
          <mxGeometry relative="1" as="geometry">
            <mxPoint x="790" y="280" as="targetPoint" />
            <Array as="points">
              <mxPoint x="790" y="330" />
              <mxPoint x="790" y="330" />
            </Array>
            <mxPoint x="790" y="330" as="sourcePoint" />
          </mxGeometry>
        </mxCell>
        <mxCell id="e3gF1P6jjjPdqpN6oWMy-23" style="edgeStyle=orthogonalEdgeStyle;rounded=0;orthogonalLoop=1;jettySize=auto;html=1;endArrow=oval;endFill=0;" edge="1" parent="1">
          <mxGeometry relative="1" as="geometry">
            <mxPoint x="780" y="280" as="targetPoint" />
            <mxPoint x="780" y="330" as="sourcePoint" />
            <Array as="points">
              <mxPoint x="780" y="320" />
              <mxPoint x="780" y="320" />
            </Array>
          </mxGeometry>
        </mxCell>
        <mxCell id="e3gF1P6jjjPdqpN6oWMy-24" value="&lt;font style=&quot;font-size: 10px;&quot;&gt;Consulta (na ordem)&lt;/font&gt;&lt;div&gt;&lt;font style=&quot;font-size: 8px;&quot;&gt;1 - id_medico (PK)&lt;/font&gt;&lt;/div&gt;&lt;div&gt;&lt;font style=&quot;font-size: 8px;&quot;&gt;2 - nm_medico&lt;/font&gt;&lt;/div&gt;&lt;div&gt;&lt;font style=&quot;font-size: 8px;&quot;&gt;3 - id_medico_ consulta(FK)&lt;br&gt;&lt;/font&gt;&lt;/div&gt;&lt;div&gt;&lt;font style=&quot;font-size: 8px;&quot;&gt;4 - id_paciente_consulta(FK)&lt;/font&gt;&lt;/div&gt;" style="text;strokeColor=none;fillColor=none;align=left;verticalAlign=middle;spacingLeft=4;spacingRight=4;overflow=hidden;points=[[0,0.5],[1,0.5]];portConstraint=eastwest;rotatable=0;whiteSpace=wrap;html=1;" vertex="1" parent="1">
          <mxGeometry x="700" y="170" width="130" height="110" as="geometry" />
        </mxCell>
        <mxCell id="e3gF1P6jjjPdqpN6oWMy-25" value="Possui/ Engloba" style="rhombus;whiteSpace=wrap;html=1;" vertex="1" parent="1">
          <mxGeometry x="1020" y="490" width="80" height="80" as="geometry" />
        </mxCell>
        <mxCell id="e3gF1P6jjjPdqpN6oWMy-26" style="edgeStyle=orthogonalEdgeStyle;rounded=0;orthogonalLoop=1;jettySize=auto;html=1;endArrow=oval;endFill=1;" edge="1" parent="1">
          <mxGeometry relative="1" as="geometry">
            <mxPoint x="860" y="610" as="targetPoint" />
            <mxPoint x="860" y="560" as="sourcePoint" />
            <Array as="points">
              <mxPoint x="860" y="610" />
            </Array>
          </mxGeometry>
        </mxCell>
        <mxCell id="e3gF1P6jjjPdqpN6oWMy-27" style="edgeStyle=orthogonalEdgeStyle;rounded=0;orthogonalLoop=1;jettySize=auto;html=1;endArrow=oval;endFill=0;" edge="1" parent="1">
          <mxGeometry relative="1" as="geometry">
            <mxPoint x="1160.02" y="610" as="targetPoint" />
            <mxPoint x="1160.02" y="560" as="sourcePoint" />
            <Array as="points">
              <mxPoint x="1160.02" y="610" />
            </Array>
          </mxGeometry>
        </mxCell>
        <mxCell id="e3gF1P6jjjPdqpN6oWMy-28" style="edgeStyle=orthogonalEdgeStyle;rounded=0;orthogonalLoop=1;jettySize=auto;html=1;endArrow=oval;endFill=0;" edge="1" parent="1">
          <mxGeometry relative="1" as="geometry">
            <mxPoint x="770" y="280" as="targetPoint" />
            <mxPoint x="770" y="330" as="sourcePoint" />
            <Array as="points">
              <mxPoint x="770" y="320" />
              <mxPoint x="770" y="320" />
            </Array>
          </mxGeometry>
        </mxCell>
      </root>
    </mxGraphModel>
  </diagram>
</mxfile>
